<mxfile host="Electron" modified="2024-03-18T18:38:31.252Z" agent="Mozilla/5.0 (Windows NT 10.0; Win64; x64) AppleWebKit/537.36 (KHTML, like Gecko) draw.io/22.1.18 Chrome/120.0.6099.199 Electron/28.1.2 Safari/537.36" etag="9c4Upzz9s0U1uEOcOLor" version="22.1.18" type="device">
  <diagram id="C5RBs43oDa-KdzZeNtuy" name="Page-1">
    <mxGraphModel dx="2261" dy="844" grid="1" gridSize="10" guides="1" tooltips="1" connect="1" arrows="1" fold="1" page="1" pageScale="1" pageWidth="827" pageHeight="1169" math="0" shadow="0">
      <root>
        <mxCell id="WIyWlLk6GJQsqaUBKTNV-0" />
        <mxCell id="WIyWlLk6GJQsqaUBKTNV-1" parent="WIyWlLk6GJQsqaUBKTNV-0" />
        <mxCell id="WIyWlLk6GJQsqaUBKTNV-3" value="Start" style="rounded=1;whiteSpace=wrap;html=1;fontSize=12;glass=0;strokeWidth=1;shadow=0;" parent="WIyWlLk6GJQsqaUBKTNV-1" vertex="1">
          <mxGeometry x="-715" y="20" width="140" height="35" as="geometry" />
        </mxCell>
        <mxCell id="fb3xNtcODuzkv7CMy7z3-26" value="&lt;div style=&quot;border-color: var(--border-color); font-size: 10px;&quot;&gt;&lt;div style=&quot;border-color: var(--border-color);&quot;&gt;Start&lt;/div&gt;&lt;div style=&quot;border-color: var(--border-color);&quot;&gt;1. Open File&lt;/div&gt;&lt;div style=&quot;border-color: var(--border-color);&quot;&gt;2. Read file- Splitting as it is read based on &#39;\n&#39;&lt;/div&gt;&lt;div style=&quot;border-color: var(--border-color);&quot;&gt;3. Split again file based on &#39;,&#39; (for loop)&lt;/div&gt;&lt;div style=&quot;border-color: var(--border-color);&quot;&gt;4. sort data with lambda expression&lt;/div&gt;&lt;div style=&quot;border-color: var(--border-color);&quot;&gt;5. Print output&lt;/div&gt;&lt;div style=&quot;border-color: var(--border-color);&quot;&gt;6. exit&lt;/div&gt;&lt;div style=&quot;border-color: var(--border-color);&quot;&gt;End&lt;/div&gt;&lt;/div&gt;" style="rounded=0;whiteSpace=wrap;html=1;align=left;fontSize=10;" parent="WIyWlLk6GJQsqaUBKTNV-1" vertex="1">
          <mxGeometry x="-370" y="110" width="297.25" height="180" as="geometry" />
        </mxCell>
        <mxCell id="fb3xNtcODuzkv7CMy7z3-29" value="CIS 129&lt;br style=&quot;border-color: var(--border-color);&quot;&gt;Thomas Burns&lt;br&gt;M7 FILES" style="rounded=0;whiteSpace=wrap;html=1;" parent="WIyWlLk6GJQsqaUBKTNV-1" vertex="1">
          <mxGeometry x="-296.12" y="20" width="149.5" height="60" as="geometry" />
        </mxCell>
        <mxCell id="WY30ZvE9TRLJRaWXuD3o-2" value="Print Output" style="shape=document;whiteSpace=wrap;html=1;boundedLbl=1;" parent="WIyWlLk6GJQsqaUBKTNV-1" vertex="1">
          <mxGeometry x="-704.62" y="750" width="103" height="60" as="geometry" />
        </mxCell>
        <mxCell id="WY30ZvE9TRLJRaWXuD3o-9" value="" style="endArrow=classic;html=1;rounded=0;entryX=0.5;entryY=0;entryDx=0;entryDy=0;exitX=0.5;exitY=1;exitDx=0;exitDy=0;" parent="WIyWlLk6GJQsqaUBKTNV-1" source="7aiGKpPrKoZ11VUUEm7r-5" target="7aiGKpPrKoZ11VUUEm7r-10" edge="1">
          <mxGeometry width="50" height="50" relative="1" as="geometry">
            <mxPoint x="200" y="1207.5" as="sourcePoint" />
            <mxPoint x="-233.75" y="720" as="targetPoint" />
          </mxGeometry>
        </mxCell>
        <mxCell id="b4VqzqOh8Pu9dyMQso2P-11" value="" style="endArrow=classic;html=1;rounded=0;exitX=0.5;exitY=1;exitDx=0;exitDy=0;" parent="WIyWlLk6GJQsqaUBKTNV-1" source="7aiGKpPrKoZ11VUUEm7r-1" target="7aiGKpPrKoZ11VUUEm7r-5" edge="1">
          <mxGeometry width="50" height="50" relative="1" as="geometry">
            <mxPoint x="-290.5" y="755" as="sourcePoint" />
            <mxPoint x="-510" y="380" as="targetPoint" />
          </mxGeometry>
        </mxCell>
        <mxCell id="b4VqzqOh8Pu9dyMQso2P-12" value="" style="endArrow=classic;html=1;rounded=0;exitX=0.5;exitY=1;exitDx=0;exitDy=0;" parent="WIyWlLk6GJQsqaUBKTNV-1" source="7aiGKpPrKoZ11VUUEm7r-10" target="WY30ZvE9TRLJRaWXuD3o-2" edge="1">
          <mxGeometry width="50" height="50" relative="1" as="geometry">
            <mxPoint x="260" y="970" as="sourcePoint" />
            <mxPoint x="153.25" y="770" as="targetPoint" />
          </mxGeometry>
        </mxCell>
        <mxCell id="7aiGKpPrKoZ11VUUEm7r-0" value="Open FIle" style="shape=parallelogram;perimeter=parallelogramPerimeter;whiteSpace=wrap;html=1;fixedSize=1;" vertex="1" parent="WIyWlLk6GJQsqaUBKTNV-1">
          <mxGeometry x="-715" y="90" width="120" height="60" as="geometry" />
        </mxCell>
        <mxCell id="7aiGKpPrKoZ11VUUEm7r-1" value="Read FIle and Split" style="swimlane;whiteSpace=wrap;html=1;" vertex="1" parent="WIyWlLk6GJQsqaUBKTNV-1">
          <mxGeometry x="-750" y="190" width="160" height="110" as="geometry" />
        </mxCell>
        <mxCell id="7aiGKpPrKoZ11VUUEm7r-2" value="Split file into new variable" style="text;html=1;align=center;verticalAlign=middle;resizable=0;points=[];autosize=1;strokeColor=none;fillColor=none;" vertex="1" parent="7aiGKpPrKoZ11VUUEm7r-1">
          <mxGeometry y="40" width="160" height="30" as="geometry" />
        </mxCell>
        <mxCell id="7aiGKpPrKoZ11VUUEm7r-5" value="Loop through&amp;nbsp;all lines in &lt;br&gt;file&amp;nbsp;splitting on &#39;,&#39;&lt;br&gt;Is entire file split?" style="rhombus;whiteSpace=wrap;html=1;" vertex="1" parent="WIyWlLk6GJQsqaUBKTNV-1">
          <mxGeometry x="-746.25" y="350" width="186.25" height="180" as="geometry" />
        </mxCell>
        <mxCell id="7aiGKpPrKoZ11VUUEm7r-6" value="" style="endArrow=classic;html=1;rounded=0;exitX=0.45;exitY=1.033;exitDx=0;exitDy=0;exitPerimeter=0;" edge="1" parent="WIyWlLk6GJQsqaUBKTNV-1" source="7aiGKpPrKoZ11VUUEm7r-0" target="7aiGKpPrKoZ11VUUEm7r-1">
          <mxGeometry width="50" height="50" relative="1" as="geometry">
            <mxPoint x="-660" y="310" as="sourcePoint" />
            <mxPoint x="-659" y="361" as="targetPoint" />
          </mxGeometry>
        </mxCell>
        <mxCell id="7aiGKpPrKoZ11VUUEm7r-7" value="" style="endArrow=classic;html=1;rounded=0;exitX=0.5;exitY=1;exitDx=0;exitDy=0;entryX=0.583;entryY=-0.017;entryDx=0;entryDy=0;entryPerimeter=0;" edge="1" parent="WIyWlLk6GJQsqaUBKTNV-1" source="WIyWlLk6GJQsqaUBKTNV-3" target="7aiGKpPrKoZ11VUUEm7r-0">
          <mxGeometry width="50" height="50" relative="1" as="geometry">
            <mxPoint x="-651" y="162" as="sourcePoint" />
            <mxPoint x="-655" y="200" as="targetPoint" />
          </mxGeometry>
        </mxCell>
        <mxCell id="7aiGKpPrKoZ11VUUEm7r-8" value="No" style="endArrow=classic;html=1;rounded=0;exitX=1;exitY=0.5;exitDx=0;exitDy=0;entryX=0.5;entryY=0;entryDx=0;entryDy=0;" edge="1" parent="WIyWlLk6GJQsqaUBKTNV-1" source="7aiGKpPrKoZ11VUUEm7r-5" target="7aiGKpPrKoZ11VUUEm7r-5">
          <mxGeometry width="50" height="50" relative="1" as="geometry">
            <mxPoint x="-120" y="410" as="sourcePoint" />
            <mxPoint x="-450" y="370" as="targetPoint" />
            <Array as="points">
              <mxPoint x="-450" y="440" />
            </Array>
          </mxGeometry>
        </mxCell>
        <mxCell id="7aiGKpPrKoZ11VUUEm7r-10" value="Labmda sort on YEAR" style="swimlane;whiteSpace=wrap;html=1;" vertex="1" parent="WIyWlLk6GJQsqaUBKTNV-1">
          <mxGeometry x="-735" y="585" width="160" height="110" as="geometry" />
        </mxCell>
      </root>
    </mxGraphModel>
  </diagram>
</mxfile>
